<mxfile host="app.diagrams.net" modified="2023-10-16T02:02:41.644Z" agent="Mozilla/5.0 (Windows NT 10.0; Win64; x64; rv:109.0) Gecko/20100101 Firefox/118.0" etag="22yCU8i9dH0yULi9SU-b" version="22.0.4" type="github">
  <diagram id="C5RBs43oDa-KdzZeNtuy" name="Page-1">
    <mxGraphModel dx="880" dy="470" grid="1" gridSize="10" guides="1" tooltips="1" connect="1" arrows="1" fold="1" page="1" pageScale="1" pageWidth="827" pageHeight="1169" math="0" shadow="0">
      <root>
        <mxCell id="WIyWlLk6GJQsqaUBKTNV-0" />
        <mxCell id="WIyWlLk6GJQsqaUBKTNV-1" parent="WIyWlLk6GJQsqaUBKTNV-0" />
        <mxCell id="o0SucccMLZ1rPd5ki0Sy-8" style="edgeStyle=orthogonalEdgeStyle;rounded=0;orthogonalLoop=1;jettySize=auto;html=1;exitX=0.5;exitY=1;exitDx=0;exitDy=0;exitPerimeter=0;" edge="1" parent="WIyWlLk6GJQsqaUBKTNV-1" source="o0SucccMLZ1rPd5ki0Sy-1" target="o0SucccMLZ1rPd5ki0Sy-2">
          <mxGeometry relative="1" as="geometry" />
        </mxCell>
        <mxCell id="o0SucccMLZ1rPd5ki0Sy-1" value="mulai" style="strokeWidth=2;html=1;shape=mxgraph.flowchart.start_1;whiteSpace=wrap;" vertex="1" parent="WIyWlLk6GJQsqaUBKTNV-1">
          <mxGeometry x="350" y="20" width="100" height="60" as="geometry" />
        </mxCell>
        <mxCell id="o0SucccMLZ1rPd5ki0Sy-9" style="edgeStyle=orthogonalEdgeStyle;rounded=0;orthogonalLoop=1;jettySize=auto;html=1;exitX=0.5;exitY=1;exitDx=0;exitDy=0;entryX=0.5;entryY=0;entryDx=0;entryDy=0;" edge="1" parent="WIyWlLk6GJQsqaUBKTNV-1" source="o0SucccMLZ1rPd5ki0Sy-2" target="o0SucccMLZ1rPd5ki0Sy-3">
          <mxGeometry relative="1" as="geometry" />
        </mxCell>
        <mxCell id="o0SucccMLZ1rPd5ki0Sy-2" value="input alas" style="shape=parallelogram;html=1;strokeWidth=2;perimeter=parallelogramPerimeter;whiteSpace=wrap;rounded=1;arcSize=12;size=0.23;" vertex="1" parent="WIyWlLk6GJQsqaUBKTNV-1">
          <mxGeometry x="350" y="100" width="100" height="60" as="geometry" />
        </mxCell>
        <mxCell id="o0SucccMLZ1rPd5ki0Sy-10" style="edgeStyle=orthogonalEdgeStyle;rounded=0;orthogonalLoop=1;jettySize=auto;html=1;exitX=0.5;exitY=1;exitDx=0;exitDy=0;entryX=0.5;entryY=0;entryDx=0;entryDy=0;" edge="1" parent="WIyWlLk6GJQsqaUBKTNV-1" source="o0SucccMLZ1rPd5ki0Sy-3" target="o0SucccMLZ1rPd5ki0Sy-4">
          <mxGeometry relative="1" as="geometry" />
        </mxCell>
        <mxCell id="o0SucccMLZ1rPd5ki0Sy-3" value="input tinggi" style="shape=parallelogram;html=1;strokeWidth=2;perimeter=parallelogramPerimeter;whiteSpace=wrap;rounded=1;arcSize=12;size=0.23;" vertex="1" parent="WIyWlLk6GJQsqaUBKTNV-1">
          <mxGeometry x="350" y="190" width="100" height="60" as="geometry" />
        </mxCell>
        <mxCell id="o0SucccMLZ1rPd5ki0Sy-11" style="edgeStyle=orthogonalEdgeStyle;rounded=0;orthogonalLoop=1;jettySize=auto;html=1;" edge="1" parent="WIyWlLk6GJQsqaUBKTNV-1" source="o0SucccMLZ1rPd5ki0Sy-4" target="o0SucccMLZ1rPd5ki0Sy-5">
          <mxGeometry relative="1" as="geometry" />
        </mxCell>
        <mxCell id="o0SucccMLZ1rPd5ki0Sy-4" value="luas (alas tinggi) 2" style="rounded=1;whiteSpace=wrap;html=1;absoluteArcSize=1;arcSize=14;strokeWidth=2;" vertex="1" parent="WIyWlLk6GJQsqaUBKTNV-1">
          <mxGeometry x="335" y="280" width="130" height="50" as="geometry" />
        </mxCell>
        <mxCell id="o0SucccMLZ1rPd5ki0Sy-12" style="edgeStyle=orthogonalEdgeStyle;rounded=0;orthogonalLoop=1;jettySize=auto;html=1;exitX=0.5;exitY=1;exitDx=0;exitDy=0;" edge="1" parent="WIyWlLk6GJQsqaUBKTNV-1" source="o0SucccMLZ1rPd5ki0Sy-5" target="o0SucccMLZ1rPd5ki0Sy-7">
          <mxGeometry relative="1" as="geometry" />
        </mxCell>
        <mxCell id="o0SucccMLZ1rPd5ki0Sy-5" value="tampikan luas" style="shape=parallelogram;html=1;strokeWidth=2;perimeter=parallelogramPerimeter;whiteSpace=wrap;rounded=1;arcSize=12;size=0.23;" vertex="1" parent="WIyWlLk6GJQsqaUBKTNV-1">
          <mxGeometry x="350" y="380" width="100" height="60" as="geometry" />
        </mxCell>
        <mxCell id="o0SucccMLZ1rPd5ki0Sy-7" value="selesai" style="strokeWidth=2;html=1;shape=mxgraph.flowchart.start_1;whiteSpace=wrap;" vertex="1" parent="WIyWlLk6GJQsqaUBKTNV-1">
          <mxGeometry x="350" y="470" width="100" height="60" as="geometry" />
        </mxCell>
      </root>
    </mxGraphModel>
  </diagram>
</mxfile>
